<svg class="main-svg" xmlns="http://www.w3.org/2000/svg" xmlns:xlink="http://www.w3.org/1999/xlink" width="1000" height="500" style="" viewBox="0 0 1000 500"><rect x="0" y="0" width="1000" height="500" style="fill: rgb(255, 255, 255); fill-opacity: 1;"/><defs id="defs-ffb6c3"><g class="clips"><clipPath id="clipffb6c3xyplot" class="plotclip"><rect width="785" height="320"/></clipPath><clipPath class="axesclip" id="clipffb6c3x"><rect x="80" y="0" width="785" height="500"/></clipPath><clipPath class="axesclip" id="clipffb6c3y"><rect x="0" y="100" width="1000" height="320"/></clipPath><clipPath class="axesclip" id="clipffb6c3xy"><rect x="80" y="100" width="785" height="320"/></clipPath></g><g class="gradients"/><g class="patterns"/></defs><g class="bglayer"/><g class="layer-below"><g class="imagelayer"/><g class="shapelayer"/></g><g class="cartesianlayer"><g class="subplot xy"><g class="layer-subplot"><g class="shapelayer"/><g class="imagelayer"/></g><g class="minor-gridlayer"><g class="x"/><g class="y"/></g><g class="gridlayer"><g class="x"><path class="xgrid crisp" transform="translate(124.25,0)" d="M0,100v320" style="stroke: rgb(255, 255, 255); stroke-opacity: 1; stroke-width: 1px;"/><path class="xgrid crisp" transform="translate(154.53,0)" d="M0,100v320" style="stroke: rgb(255, 255, 255); stroke-opacity: 1; stroke-width: 1px;"/><path class="xgrid crisp" transform="translate(184.82,0)" d="M0,100v320" style="stroke: rgb(255, 255, 255); stroke-opacity: 1; stroke-width: 1px;"/><path class="xgrid crisp" transform="translate(215.1,0)" d="M0,100v320" style="stroke: rgb(255, 255, 255); stroke-opacity: 1; stroke-width: 1px;"/><path class="xgrid crisp" transform="translate(245.38,0)" d="M0,100v320" style="stroke: rgb(255, 255, 255); stroke-opacity: 1; stroke-width: 1px;"/><path class="xgrid crisp" transform="translate(275.65999999999997,0)" d="M0,100v320" style="stroke: rgb(255, 255, 255); stroke-opacity: 1; stroke-width: 1px;"/><path class="xgrid crisp" transform="translate(305.95,0)" d="M0,100v320" style="stroke: rgb(255, 255, 255); stroke-opacity: 1; stroke-width: 1px;"/><path class="xgrid crisp" transform="translate(336.23,0)" d="M0,100v320" style="stroke: rgb(255, 255, 255); stroke-opacity: 1; stroke-width: 1px;"/><path class="xgrid crisp" transform="translate(366.51,0)" d="M0,100v320" style="stroke: rgb(255, 255, 255); stroke-opacity: 1; stroke-width: 1px;"/><path class="xgrid crisp" transform="translate(396.79,0)" d="M0,100v320" style="stroke: rgb(255, 255, 255); stroke-opacity: 1; stroke-width: 1px;"/><path class="xgrid crisp" transform="translate(427.08,0)" d="M0,100v320" style="stroke: rgb(255, 255, 255); stroke-opacity: 1; stroke-width: 1px;"/><path class="xgrid crisp" transform="translate(457.36,0)" d="M0,100v320" style="stroke: rgb(255, 255, 255); stroke-opacity: 1; stroke-width: 1px;"/><path class="xgrid crisp" transform="translate(487.64,0)" d="M0,100v320" style="stroke: rgb(255, 255, 255); stroke-opacity: 1; stroke-width: 1px;"/><path class="xgrid crisp" transform="translate(517.9200000000001,0)" d="M0,100v320" style="stroke: rgb(255, 255, 255); stroke-opacity: 1; stroke-width: 1px;"/><path class="xgrid crisp" transform="translate(548.21,0)" d="M0,100v320" style="stroke: rgb(255, 255, 255); stroke-opacity: 1; stroke-width: 1px;"/><path class="xgrid crisp" transform="translate(578.49,0)" d="M0,100v320" style="stroke: rgb(255, 255, 255); stroke-opacity: 1; stroke-width: 1px;"/><path class="xgrid crisp" transform="translate(608.77,0)" d="M0,100v320" style="stroke: rgb(255, 255, 255); stroke-opacity: 1; stroke-width: 1px;"/><path class="xgrid crisp" transform="translate(639.05,0)" d="M0,100v320" style="stroke: rgb(255, 255, 255); stroke-opacity: 1; stroke-width: 1px;"/><path class="xgrid crisp" transform="translate(669.34,0)" d="M0,100v320" style="stroke: rgb(255, 255, 255); stroke-opacity: 1; stroke-width: 1px;"/><path class="xgrid crisp" transform="translate(699.62,0)" d="M0,100v320" style="stroke: rgb(255, 255, 255); stroke-opacity: 1; stroke-width: 1px;"/><path class="xgrid crisp" transform="translate(729.9,0)" d="M0,100v320" style="stroke: rgb(255, 255, 255); stroke-opacity: 1; stroke-width: 1px;"/><path class="xgrid crisp" transform="translate(760.18,0)" d="M0,100v320" style="stroke: rgb(255, 255, 255); stroke-opacity: 1; stroke-width: 1px;"/><path class="xgrid crisp" transform="translate(790.47,0)" d="M0,100v320" style="stroke: rgb(255, 255, 255); stroke-opacity: 1; stroke-width: 1px;"/><path class="xgrid crisp" transform="translate(820.75,0)" d="M0,100v320" style="stroke: rgb(255, 255, 255); stroke-opacity: 1; stroke-width: 1px;"/></g><g class="y"><path class="ygrid crisp" transform="translate(0,358.12)" d="M80,0h785" style="stroke: rgb(229, 229, 229); stroke-opacity: 1; stroke-width: 1px;"/><path class="ygrid crisp" transform="translate(0,317.24)" d="M80,0h785" style="stroke: rgb(229, 229, 229); stroke-opacity: 1; stroke-width: 1px;"/><path class="ygrid crisp" transform="translate(0,276.35)" d="M80,0h785" style="stroke: rgb(229, 229, 229); stroke-opacity: 1; stroke-width: 1px;"/><path class="ygrid crisp" transform="translate(0,235.47)" d="M80,0h785" style="stroke: rgb(229, 229, 229); stroke-opacity: 1; stroke-width: 1px;"/><path class="ygrid crisp" transform="translate(0,194.59)" d="M80,0h785" style="stroke: rgb(229, 229, 229); stroke-opacity: 1; stroke-width: 1px;"/><path class="ygrid crisp" transform="translate(0,153.71)" d="M80,0h785" style="stroke: rgb(229, 229, 229); stroke-opacity: 1; stroke-width: 1px;"/><path class="ygrid crisp" transform="translate(0,112.82)" d="M80,0h785" style="stroke: rgb(229, 229, 229); stroke-opacity: 1; stroke-width: 1px;"/></g></g><g class="zerolinelayer"><path class="yzl zl crisp" transform="translate(0,399)" d="M80,0h785" style="stroke: rgb(255, 255, 255); stroke-opacity: 1; stroke-width: 2px;"/></g><g class="layer-between"><g class="shapelayer"/><g class="imagelayer"/></g><path class="xlines-below"/><path class="ylines-below"/><g class="overlines-below"/><g class="xaxislayer-below"/><g class="yaxislayer-below"/><g class="overaxes-below"/><g class="plot" transform="translate(80,100)" clip-path="url(#clipffb6c3xyplot)"><g class="scatterlayer mlayer"><g class="trace scatter tracef0989b" style="stroke-miterlimit: 2; opacity: 1;"><g class="fills"/><g class="errorbars"/><g class="lines"><path class="js-line" d="M44.25,299L195.66,299L225.95,285.2L256.23,254.76L286.51,221.28L316.79,110.38L347.08,25.79L377.36,22.78L407.64,22.18L437.92,32.83L468.21,52.3L498.49,71.9L528.77,121.45L559.05,258.93L589.34,299L740.75,299" style="vector-effect: none; fill: none; stroke: rgb(25, 100, 126); stroke-opacity: 1; stroke-width: 2px; opacity: 1;"/></g><g class="points"><path class="point" transform="translate(44.25,299)" d="M4,0A4,4 0 1,1 0,-4A4,4 0 0,1 4,0Z" style="opacity: 1; stroke-width: 0px; fill: rgb(25, 100, 126); fill-opacity: 1;"/><path class="point" transform="translate(74.53,299)" d="M4,0A4,4 0 1,1 0,-4A4,4 0 0,1 4,0Z" style="opacity: 1; stroke-width: 0px; fill: rgb(25, 100, 126); fill-opacity: 1;"/><path class="point" transform="translate(104.82,299)" d="M4,0A4,4 0 1,1 0,-4A4,4 0 0,1 4,0Z" style="opacity: 1; stroke-width: 0px; fill: rgb(25, 100, 126); fill-opacity: 1;"/><path class="point" transform="translate(135.1,299)" d="M4,0A4,4 0 1,1 0,-4A4,4 0 0,1 4,0Z" style="opacity: 1; stroke-width: 0px; fill: rgb(25, 100, 126); fill-opacity: 1;"/><path class="point" transform="translate(165.38,299)" d="M4,0A4,4 0 1,1 0,-4A4,4 0 0,1 4,0Z" style="opacity: 1; stroke-width: 0px; fill: rgb(25, 100, 126); fill-opacity: 1;"/><path class="point" transform="translate(195.66,299)" d="M4,0A4,4 0 1,1 0,-4A4,4 0 0,1 4,0Z" style="opacity: 1; stroke-width: 0px; fill: rgb(25, 100, 126); fill-opacity: 1;"/><path class="point" transform="translate(225.95,285.2)" d="M4,0A4,4 0 1,1 0,-4A4,4 0 0,1 4,0Z" style="opacity: 1; stroke-width: 0px; fill: rgb(25, 100, 126); fill-opacity: 1;"/><path class="point" transform="translate(256.23,254.76)" d="M4,0A4,4 0 1,1 0,-4A4,4 0 0,1 4,0Z" style="opacity: 1; stroke-width: 0px; fill: rgb(25, 100, 126); fill-opacity: 1;"/><path class="point" transform="translate(286.51,221.28)" d="M4,0A4,4 0 1,1 0,-4A4,4 0 0,1 4,0Z" style="opacity: 1; stroke-width: 0px; fill: rgb(25, 100, 126); fill-opacity: 1;"/><path class="point" transform="translate(316.79,110.38)" d="M4,0A4,4 0 1,1 0,-4A4,4 0 0,1 4,0Z" style="opacity: 1; stroke-width: 0px; fill: rgb(25, 100, 126); fill-opacity: 1;"/><path class="point" transform="translate(347.08,25.79)" d="M4,0A4,4 0 1,1 0,-4A4,4 0 0,1 4,0Z" style="opacity: 1; stroke-width: 0px; fill: rgb(25, 100, 126); fill-opacity: 1;"/><path class="point" transform="translate(377.36,22.78)" d="M4,0A4,4 0 1,1 0,-4A4,4 0 0,1 4,0Z" style="opacity: 1; stroke-width: 0px; fill: rgb(25, 100, 126); fill-opacity: 1;"/><path class="point" transform="translate(407.64,22.18)" d="M4,0A4,4 0 1,1 0,-4A4,4 0 0,1 4,0Z" style="opacity: 1; stroke-width: 0px; fill: rgb(25, 100, 126); fill-opacity: 1;"/><path class="point" transform="translate(437.92,32.83)" d="M4,0A4,4 0 1,1 0,-4A4,4 0 0,1 4,0Z" style="opacity: 1; stroke-width: 0px; fill: rgb(25, 100, 126); fill-opacity: 1;"/><path class="point" transform="translate(468.21,52.3)" d="M4,0A4,4 0 1,1 0,-4A4,4 0 0,1 4,0Z" style="opacity: 1; stroke-width: 0px; fill: rgb(25, 100, 126); fill-opacity: 1;"/><path class="point" transform="translate(498.49,71.9)" d="M4,0A4,4 0 1,1 0,-4A4,4 0 0,1 4,0Z" style="opacity: 1; stroke-width: 0px; fill: rgb(25, 100, 126); fill-opacity: 1;"/><path class="point" transform="translate(528.77,121.45)" d="M4,0A4,4 0 1,1 0,-4A4,4 0 0,1 4,0Z" style="opacity: 1; stroke-width: 0px; fill: rgb(25, 100, 126); fill-opacity: 1;"/><path class="point" transform="translate(559.05,258.93)" d="M4,0A4,4 0 1,1 0,-4A4,4 0 0,1 4,0Z" style="opacity: 1; stroke-width: 0px; fill: rgb(25, 100, 126); fill-opacity: 1;"/><path class="point" transform="translate(589.34,299)" d="M4,0A4,4 0 1,1 0,-4A4,4 0 0,1 4,0Z" style="opacity: 1; stroke-width: 0px; fill: rgb(25, 100, 126); fill-opacity: 1;"/><path class="point" transform="translate(619.62,299)" d="M4,0A4,4 0 1,1 0,-4A4,4 0 0,1 4,0Z" style="opacity: 1; stroke-width: 0px; fill: rgb(25, 100, 126); fill-opacity: 1;"/><path class="point" transform="translate(649.9,299)" d="M4,0A4,4 0 1,1 0,-4A4,4 0 0,1 4,0Z" style="opacity: 1; stroke-width: 0px; fill: rgb(25, 100, 126); fill-opacity: 1;"/><path class="point" transform="translate(680.18,299)" d="M4,0A4,4 0 1,1 0,-4A4,4 0 0,1 4,0Z" style="opacity: 1; stroke-width: 0px; fill: rgb(25, 100, 126); fill-opacity: 1;"/><path class="point" transform="translate(710.47,299)" d="M4,0A4,4 0 1,1 0,-4A4,4 0 0,1 4,0Z" style="opacity: 1; stroke-width: 0px; fill: rgb(25, 100, 126); fill-opacity: 1;"/><path class="point" transform="translate(740.75,299)" d="M4,0A4,4 0 1,1 0,-4A4,4 0 0,1 4,0Z" style="opacity: 1; stroke-width: 0px; fill: rgb(25, 100, 126); fill-opacity: 1;"/></g><g class="text"/></g><g class="trace scatter trace981cd8" style="stroke-miterlimit: 2; opacity: 1;"><g class="fills"/><g class="errorbars"/><g class="lines"><path class="js-line" d="M44.25,299L195.66,299L225.95,258.12L256.23,110.94L286.51,21L498.49,21L528.77,98.68L559.05,258.12L589.34,299L740.75,299" style="vector-effect: none; fill: none; stroke: rgb(250, 128, 114); stroke-opacity: 1; stroke-width: 2px; opacity: 1;"/></g><g class="points"><path class="point" transform="translate(44.25,299)" d="M5.2,0L0,5.2L-5.2,0L0,-5.2Z" style="opacity: 1; stroke-width: 0px; fill: rgb(250, 128, 114); fill-opacity: 1;"/><path class="point" transform="translate(74.53,299)" d="M5.2,0L0,5.2L-5.2,0L0,-5.2Z" style="opacity: 1; stroke-width: 0px; fill: rgb(250, 128, 114); fill-opacity: 1;"/><path class="point" transform="translate(104.82,299)" d="M5.2,0L0,5.2L-5.2,0L0,-5.2Z" style="opacity: 1; stroke-width: 0px; fill: rgb(250, 128, 114); fill-opacity: 1;"/><path class="point" transform="translate(135.1,299)" d="M5.2,0L0,5.2L-5.2,0L0,-5.2Z" style="opacity: 1; stroke-width: 0px; fill: rgb(250, 128, 114); fill-opacity: 1;"/><path class="point" transform="translate(165.38,299)" d="M5.2,0L0,5.2L-5.2,0L0,-5.2Z" style="opacity: 1; stroke-width: 0px; fill: rgb(250, 128, 114); fill-opacity: 1;"/><path class="point" transform="translate(195.66,299)" d="M5.2,0L0,5.2L-5.2,0L0,-5.2Z" style="opacity: 1; stroke-width: 0px; fill: rgb(250, 128, 114); fill-opacity: 1;"/><path class="point" transform="translate(225.95,258.12)" d="M5.2,0L0,5.2L-5.2,0L0,-5.2Z" style="opacity: 1; stroke-width: 0px; fill: rgb(250, 128, 114); fill-opacity: 1;"/><path class="point" transform="translate(256.23,110.94)" d="M5.2,0L0,5.2L-5.2,0L0,-5.2Z" style="opacity: 1; stroke-width: 0px; fill: rgb(250, 128, 114); fill-opacity: 1;"/><path class="point" transform="translate(286.51,21)" d="M5.2,0L0,5.2L-5.2,0L0,-5.2Z" style="opacity: 1; stroke-width: 0px; fill: rgb(250, 128, 114); fill-opacity: 1;"/><path class="point" transform="translate(316.79,21)" d="M5.2,0L0,5.2L-5.2,0L0,-5.2Z" style="opacity: 1; stroke-width: 0px; fill: rgb(250, 128, 114); fill-opacity: 1;"/><path class="point" transform="translate(347.08,21)" d="M5.2,0L0,5.2L-5.2,0L0,-5.2Z" style="opacity: 1; stroke-width: 0px; fill: rgb(250, 128, 114); fill-opacity: 1;"/><path class="point" transform="translate(377.36,21)" d="M5.2,0L0,5.2L-5.2,0L0,-5.2Z" style="opacity: 1; stroke-width: 0px; fill: rgb(250, 128, 114); fill-opacity: 1;"/><path class="point" transform="translate(407.64,21)" d="M5.2,0L0,5.2L-5.2,0L0,-5.2Z" style="opacity: 1; stroke-width: 0px; fill: rgb(250, 128, 114); fill-opacity: 1;"/><path class="point" transform="translate(437.92,21)" d="M5.2,0L0,5.2L-5.2,0L0,-5.2Z" style="opacity: 1; stroke-width: 0px; fill: rgb(250, 128, 114); fill-opacity: 1;"/><path class="point" transform="translate(468.21,21)" d="M5.2,0L0,5.2L-5.2,0L0,-5.2Z" style="opacity: 1; stroke-width: 0px; fill: rgb(250, 128, 114); fill-opacity: 1;"/><path class="point" transform="translate(498.49,21)" d="M5.2,0L0,5.2L-5.2,0L0,-5.2Z" style="opacity: 1; stroke-width: 0px; fill: rgb(250, 128, 114); fill-opacity: 1;"/><path class="point" transform="translate(528.77,98.68)" d="M5.2,0L0,5.2L-5.2,0L0,-5.2Z" style="opacity: 1; stroke-width: 0px; fill: rgb(250, 128, 114); fill-opacity: 1;"/><path class="point" transform="translate(559.05,258.12)" d="M5.2,0L0,5.2L-5.2,0L0,-5.2Z" style="opacity: 1; stroke-width: 0px; fill: rgb(250, 128, 114); fill-opacity: 1;"/><path class="point" transform="translate(589.34,299)" d="M5.2,0L0,5.2L-5.2,0L0,-5.2Z" style="opacity: 1; stroke-width: 0px; fill: rgb(250, 128, 114); fill-opacity: 1;"/><path class="point" transform="translate(619.62,299)" d="M5.2,0L0,5.2L-5.2,0L0,-5.2Z" style="opacity: 1; stroke-width: 0px; fill: rgb(250, 128, 114); fill-opacity: 1;"/><path class="point" transform="translate(649.9,299)" d="M5.2,0L0,5.2L-5.2,0L0,-5.2Z" style="opacity: 1; stroke-width: 0px; fill: rgb(250, 128, 114); fill-opacity: 1;"/><path class="point" transform="translate(680.18,299)" d="M5.2,0L0,5.2L-5.2,0L0,-5.2Z" style="opacity: 1; stroke-width: 0px; fill: rgb(250, 128, 114); fill-opacity: 1;"/><path class="point" transform="translate(710.47,299)" d="M5.2,0L0,5.2L-5.2,0L0,-5.2Z" style="opacity: 1; stroke-width: 0px; fill: rgb(250, 128, 114); fill-opacity: 1;"/><path class="point" transform="translate(740.75,299)" d="M5.2,0L0,5.2L-5.2,0L0,-5.2Z" style="opacity: 1; stroke-width: 0px; fill: rgb(250, 128, 114); fill-opacity: 1;"/></g><g class="text"/></g><g class="trace scatter tracedaec1a" style="stroke-miterlimit: 2; opacity: 1;"><g class="fills"/><g class="errorbars"/><g class="lines"><path class="js-line" d="M44.25,299L195.66,299L225.95,270.38L256.23,217.24L286.51,119.12L316.79,61.88L347.08,115.03L407.64,74.15L437.92,135.47L468.21,115.03L498.49,21L528.77,98.68L559.05,258.12L589.34,299L619.62,299L740.75,299" style="vector-effect: none; fill: none; stroke: rgb(40, 175, 176); stroke-opacity: 1; stroke-width: 2px; opacity: 1;"/></g><g class="points"><path class="point" transform="translate(44.25,299)" d="M-4.62,2H4.62L0,-4Z" style="opacity: 1; stroke-width: 0px; fill: rgb(40, 175, 176); fill-opacity: 1;"/><path class="point" transform="translate(74.53,299)" d="M-4.62,2H4.62L0,-4Z" style="opacity: 1; stroke-width: 0px; fill: rgb(40, 175, 176); fill-opacity: 1;"/><path class="point" transform="translate(104.82,299)" d="M-4.62,2H4.62L0,-4Z" style="opacity: 1; stroke-width: 0px; fill: rgb(40, 175, 176); fill-opacity: 1;"/><path class="point" transform="translate(135.1,299)" d="M-4.62,2H4.62L0,-4Z" style="opacity: 1; stroke-width: 0px; fill: rgb(40, 175, 176); fill-opacity: 1;"/><path class="point" transform="translate(165.38,299)" d="M-4.62,2H4.62L0,-4Z" style="opacity: 1; stroke-width: 0px; fill: rgb(40, 175, 176); fill-opacity: 1;"/><path class="point" transform="translate(195.66,299)" d="M-4.62,2H4.62L0,-4Z" style="opacity: 1; stroke-width: 0px; fill: rgb(40, 175, 176); fill-opacity: 1;"/><path class="point" transform="translate(225.95,270.38)" d="M-4.62,2H4.62L0,-4Z" style="opacity: 1; stroke-width: 0px; fill: rgb(40, 175, 176); fill-opacity: 1;"/><path class="point" transform="translate(256.23,217.24)" d="M-4.62,2H4.62L0,-4Z" style="opacity: 1; stroke-width: 0px; fill: rgb(40, 175, 176); fill-opacity: 1;"/><path class="point" transform="translate(286.51,119.12)" d="M-4.62,2H4.62L0,-4Z" style="opacity: 1; stroke-width: 0px; fill: rgb(40, 175, 176); fill-opacity: 1;"/><path class="point" transform="translate(316.79,61.88)" d="M-4.62,2H4.62L0,-4Z" style="opacity: 1; stroke-width: 0px; fill: rgb(40, 175, 176); fill-opacity: 1;"/><path class="point" transform="translate(347.08,115.03)" d="M-4.62,2H4.62L0,-4Z" style="opacity: 1; stroke-width: 0px; fill: rgb(40, 175, 176); fill-opacity: 1;"/><path class="point" transform="translate(377.36,94.59)" d="M-4.62,2H4.62L0,-4Z" style="opacity: 1; stroke-width: 0px; fill: rgb(40, 175, 176); fill-opacity: 1;"/><path class="point" transform="translate(407.64,74.15)" d="M-4.62,2H4.62L0,-4Z" style="opacity: 1; stroke-width: 0px; fill: rgb(40, 175, 176); fill-opacity: 1;"/><path class="point" transform="translate(437.92,135.47)" d="M-4.62,2H4.62L0,-4Z" style="opacity: 1; stroke-width: 0px; fill: rgb(40, 175, 176); fill-opacity: 1;"/><path class="point" transform="translate(468.21,115.03)" d="M-4.62,2H4.62L0,-4Z" style="opacity: 1; stroke-width: 0px; fill: rgb(40, 175, 176); fill-opacity: 1;"/><path class="point" transform="translate(498.49,21)" d="M-4.62,2H4.62L0,-4Z" style="opacity: 1; stroke-width: 0px; fill: rgb(40, 175, 176); fill-opacity: 1;"/><path class="point" transform="translate(528.77,98.68)" d="M-4.62,2H4.62L0,-4Z" style="opacity: 1; stroke-width: 0px; fill: rgb(40, 175, 176); fill-opacity: 1;"/><path class="point" transform="translate(559.05,258.12)" d="M-4.62,2H4.62L0,-4Z" style="opacity: 1; stroke-width: 0px; fill: rgb(40, 175, 176); fill-opacity: 1;"/><path class="point" transform="translate(589.34,299)" d="M-4.62,2H4.62L0,-4Z" style="opacity: 1; stroke-width: 0px; fill: rgb(40, 175, 176); fill-opacity: 1;"/><path class="point" transform="translate(619.62,299)" d="M-4.62,2H4.62L0,-4Z" style="opacity: 1; stroke-width: 0px; fill: rgb(40, 175, 176); fill-opacity: 1;"/><path class="point" transform="translate(649.9,299)" d="M-4.62,2H4.62L0,-4Z" style="opacity: 1; stroke-width: 0px; fill: rgb(40, 175, 176); fill-opacity: 1;"/><path class="point" transform="translate(680.18,299)" d="M-4.62,2H4.62L0,-4Z" style="opacity: 1; stroke-width: 0px; fill: rgb(40, 175, 176); fill-opacity: 1;"/><path class="point" transform="translate(710.47,299)" d="M-4.62,2H4.62L0,-4Z" style="opacity: 1; stroke-width: 0px; fill: rgb(40, 175, 176); fill-opacity: 1;"/><path class="point" transform="translate(740.75,299)" d="M-4.62,2H4.62L0,-4Z" style="opacity: 1; stroke-width: 0px; fill: rgb(40, 175, 176); fill-opacity: 1;"/></g><g class="text"/></g></g></g><g class="overplot"/><path class="xlines-above crisp" d="M0,0" style="fill: none;"/><path class="ylines-above crisp" d="M79.5,100V420M865.5,100V420" style="fill: none; stroke-width: 1px; stroke: rgb(0, 0, 0); stroke-opacity: 1;"/><g class="overlines-above"/><g class="xaxislayer-above"><g class="xtick"><text text-anchor="middle" x="0" y="433" transform="translate(124.25,0)" style="font-family: system-ui; font-size: 12px; fill: rgb(0, 0, 0); fill-opacity: 1; white-space: pre; opacity: 1;">01</text></g><g class="xtick"><text text-anchor="middle" x="0" y="433" transform="translate(154.53,0)" style="font-family: system-ui; font-size: 12px; fill: rgb(0, 0, 0); fill-opacity: 1; white-space: pre; opacity: 1;">02</text></g><g class="xtick"><text text-anchor="middle" x="0" y="433" transform="translate(184.82,0)" style="font-family: system-ui; font-size: 12px; fill: rgb(0, 0, 0); fill-opacity: 1; white-space: pre; opacity: 1;">03</text></g><g class="xtick"><text text-anchor="middle" x="0" y="433" transform="translate(215.1,0)" style="font-family: system-ui; font-size: 12px; fill: rgb(0, 0, 0); fill-opacity: 1; white-space: pre; opacity: 1;">04</text></g><g class="xtick"><text text-anchor="middle" x="0" y="433" transform="translate(245.38,0)" style="font-family: system-ui; font-size: 12px; fill: rgb(0, 0, 0); fill-opacity: 1; white-space: pre; opacity: 1;">05</text></g><g class="xtick"><text text-anchor="middle" x="0" y="433" transform="translate(275.65999999999997,0)" style="font-family: system-ui; font-size: 12px; fill: rgb(0, 0, 0); fill-opacity: 1; white-space: pre; opacity: 1;">06</text></g><g class="xtick"><text text-anchor="middle" x="0" y="433" transform="translate(305.95,0)" style="font-family: system-ui; font-size: 12px; fill: rgb(0, 0, 0); fill-opacity: 1; white-space: pre; opacity: 1;">07</text></g><g class="xtick"><text text-anchor="middle" x="0" y="433" transform="translate(336.23,0)" style="font-family: system-ui; font-size: 12px; fill: rgb(0, 0, 0); fill-opacity: 1; white-space: pre; opacity: 1;">08</text></g><g class="xtick"><text text-anchor="middle" x="0" y="433" transform="translate(366.51,0)" style="font-family: system-ui; font-size: 12px; fill: rgb(0, 0, 0); fill-opacity: 1; white-space: pre; opacity: 1;">09</text></g><g class="xtick"><text text-anchor="middle" x="0" y="433" transform="translate(396.79,0)" style="font-family: system-ui; font-size: 12px; fill: rgb(0, 0, 0); fill-opacity: 1; white-space: pre; opacity: 1;">10</text></g><g class="xtick"><text text-anchor="middle" x="0" y="433" transform="translate(427.08,0)" style="font-family: system-ui; font-size: 12px; fill: rgb(0, 0, 0); fill-opacity: 1; white-space: pre; opacity: 1;">11</text></g><g class="xtick"><text text-anchor="middle" x="0" y="433" transform="translate(457.36,0)" style="font-family: system-ui; font-size: 12px; fill: rgb(0, 0, 0); fill-opacity: 1; white-space: pre; opacity: 1;">12</text></g><g class="xtick"><text text-anchor="middle" x="0" y="433" transform="translate(487.64,0)" style="font-family: system-ui; font-size: 12px; fill: rgb(0, 0, 0); fill-opacity: 1; white-space: pre; opacity: 1;">13</text></g><g class="xtick"><text text-anchor="middle" x="0" y="433" transform="translate(517.9200000000001,0)" style="font-family: system-ui; font-size: 12px; fill: rgb(0, 0, 0); fill-opacity: 1; white-space: pre; opacity: 1;">14</text></g><g class="xtick"><text text-anchor="middle" x="0" y="433" transform="translate(548.21,0)" style="font-family: system-ui; font-size: 12px; fill: rgb(0, 0, 0); fill-opacity: 1; white-space: pre; opacity: 1;">15</text></g><g class="xtick"><text text-anchor="middle" x="0" y="433" transform="translate(578.49,0)" style="font-family: system-ui; font-size: 12px; fill: rgb(0, 0, 0); fill-opacity: 1; white-space: pre; opacity: 1;">16</text></g><g class="xtick"><text text-anchor="middle" x="0" y="433" transform="translate(608.77,0)" style="font-family: system-ui; font-size: 12px; fill: rgb(0, 0, 0); fill-opacity: 1; white-space: pre; opacity: 1;">17</text></g><g class="xtick"><text text-anchor="middle" x="0" y="433" transform="translate(639.05,0)" style="font-family: system-ui; font-size: 12px; fill: rgb(0, 0, 0); fill-opacity: 1; white-space: pre; opacity: 1;">18</text></g><g class="xtick"><text text-anchor="middle" x="0" y="433" transform="translate(669.34,0)" style="font-family: system-ui; font-size: 12px; fill: rgb(0, 0, 0); fill-opacity: 1; white-space: pre; opacity: 1;">19</text></g><g class="xtick"><text text-anchor="middle" x="0" y="433" transform="translate(699.62,0)" style="font-family: system-ui; font-size: 12px; fill: rgb(0, 0, 0); fill-opacity: 1; white-space: pre; opacity: 1;">20</text></g><g class="xtick"><text text-anchor="middle" x="0" y="433" transform="translate(729.9,0)" style="font-family: system-ui; font-size: 12px; fill: rgb(0, 0, 0); fill-opacity: 1; white-space: pre; opacity: 1;">21</text></g><g class="xtick"><text text-anchor="middle" x="0" y="433" transform="translate(760.18,0)" style="font-family: system-ui; font-size: 12px; fill: rgb(0, 0, 0); fill-opacity: 1; white-space: pre; opacity: 1;">22</text></g><g class="xtick"><text text-anchor="middle" x="0" y="433" transform="translate(790.47,0)" style="font-family: system-ui; font-size: 12px; fill: rgb(0, 0, 0); fill-opacity: 1; white-space: pre; opacity: 1;">23</text></g><g class="xtick"><text text-anchor="middle" x="0" y="433" transform="translate(820.75,0)" style="font-family: system-ui; font-size: 12px; fill: rgb(0, 0, 0); fill-opacity: 1; white-space: pre; opacity: 1;">24</text></g></g><g class="yaxislayer-above"><g class="ytick"><text text-anchor="end" x="76.6" y="4.199999999999999" transform="translate(0,399)" style="font-family: system-ui; font-size: 12px; fill: rgb(0, 0, 0); fill-opacity: 1; white-space: pre; opacity: 1;">0</text></g><g class="ytick"><text text-anchor="end" x="76.6" y="4.199999999999999" style="font-family: system-ui; font-size: 12px; fill: rgb(0, 0, 0); fill-opacity: 1; white-space: pre; opacity: 1;" transform="translate(0,358.12)">10k</text></g><g class="ytick"><text text-anchor="end" x="76.6" y="4.199999999999999" style="font-family: system-ui; font-size: 12px; fill: rgb(0, 0, 0); fill-opacity: 1; white-space: pre; opacity: 1;" transform="translate(0,317.24)">20k</text></g><g class="ytick"><text text-anchor="end" x="76.6" y="4.199999999999999" style="font-family: system-ui; font-size: 12px; fill: rgb(0, 0, 0); fill-opacity: 1; white-space: pre; opacity: 1;" transform="translate(0,276.35)">30k</text></g><g class="ytick"><text text-anchor="end" x="76.6" y="4.199999999999999" style="font-family: system-ui; font-size: 12px; fill: rgb(0, 0, 0); fill-opacity: 1; white-space: pre; opacity: 1;" transform="translate(0,235.47)">40k</text></g><g class="ytick"><text text-anchor="end" x="76.6" y="4.199999999999999" style="font-family: system-ui; font-size: 12px; fill: rgb(0, 0, 0); fill-opacity: 1; white-space: pre; opacity: 1;" transform="translate(0,194.59)">50k</text></g><g class="ytick"><text text-anchor="end" x="76.6" y="4.199999999999999" style="font-family: system-ui; font-size: 12px; fill: rgb(0, 0, 0); fill-opacity: 1; white-space: pre; opacity: 1;" transform="translate(0,153.71)">60k</text></g><g class="ytick"><text text-anchor="end" x="76.6" y="4.199999999999999" style="font-family: system-ui; font-size: 12px; fill: rgb(0, 0, 0); fill-opacity: 1; white-space: pre; opacity: 1;" transform="translate(0,112.82)">70k</text></g></g><g class="overaxes-above"/></g></g><g class="polarlayer"/><g class="smithlayer"/><g class="ternarylayer"/><g class="geolayer"/><g class="funnelarealayer"/><g class="pielayer"/><g class="iciclelayer"/><g class="treemaplayer"/><g class="sunburstlayer"/><g class="glimages"/><defs id="topdefs-ffb6c3"><g class="clips"/><clipPath id="legendffb6c3"><rect width="107" height="67" x="0" y="0"/></clipPath></defs><g class="layer-above"><g class="imagelayer"/><g class="shapelayer"/></g><g class="infolayer"><g class="legend" pointer-events="all" transform="translate(880.7,100)"><rect class="bg" shape-rendering="crispEdges" style="stroke: rgb(68, 68, 68); stroke-opacity: 1; fill: rgb(255, 255, 255); fill-opacity: 1; stroke-width: 0px;" width="107" height="67" x="0" y="0"/><g class="scrollbox" transform="" clip-path="url(#legendffb6c3)"><g class="groups"><g class="traces" transform="translate(0,14.5)" style="opacity: 1;"><text class="legendtext" text-anchor="start" x="40" y="4.680000000000001" style="font-family: system-ui; font-size: 12px; fill: rgb(0, 0, 0); fill-opacity: 1; white-space: pre;">generación</text><g class="layers" style="opacity: 1;"><g class="legendfill"/><g class="legendlines"><path class="js-line" d="M5,0h30" style="fill: none; stroke: rgb(25, 100, 126); stroke-opacity: 1; stroke-width: 2px;"/></g><g class="legendsymbols"><g class="legendpoints"><path class="scatterpts" transform="translate(20,0)" d="M4,0A4,4 0 1,1 0,-4A4,4 0 0,1 4,0Z" style="opacity: 1; stroke-width: 0px; fill: rgb(25, 100, 126); fill-opacity: 1;"/></g></g></g><rect class="legendtoggle" x="0" y="-9.5" width="101.40625" height="19" style="fill: rgb(0, 0, 0); fill-opacity: 0;"/></g><g class="traces" transform="translate(0,33.5)" style="opacity: 1;"><text class="legendtext" text-anchor="start" x="40" y="4.680000000000001" style="font-family: system-ui; font-size: 12px; fill: rgb(0, 0, 0); fill-opacity: 1; white-space: pre;">despacho</text><g class="layers" style="opacity: 1;"><g class="legendfill"/><g class="legendlines"><path class="js-line" d="M5,0h30" style="fill: none; stroke: rgb(250, 128, 114); stroke-opacity: 1; stroke-width: 2px;"/></g><g class="legendsymbols"><g class="legendpoints"><path class="scatterpts" transform="translate(20,0)" d="M5.2,0L0,5.2L-5.2,0L0,-5.2Z" style="opacity: 1; stroke-width: 0px; fill: rgb(250, 128, 114); fill-opacity: 1;"/></g></g></g><rect class="legendtoggle" x="0" y="-9.5" width="101.40625" height="19" style="fill: rgb(0, 0, 0); fill-opacity: 0;"/></g><g class="traces" transform="translate(0,52.5)" style="opacity: 1;"><text class="legendtext" text-anchor="start" x="40" y="4.680000000000001" style="font-family: system-ui; font-size: 12px; fill: rgb(0, 0, 0); fill-opacity: 1; white-space: pre;">redespacho</text><g class="layers" style="opacity: 1;"><g class="legendfill"/><g class="legendlines"><path class="js-line" d="M5,0h30" style="fill: none; stroke: rgb(40, 175, 176); stroke-opacity: 1; stroke-width: 2px;"/></g><g class="legendsymbols"><g class="legendpoints"><path class="scatterpts" transform="translate(20,0)" d="M-4.62,2H4.62L0,-4Z" style="opacity: 1; stroke-width: 0px; fill: rgb(40, 175, 176); fill-opacity: 1;"/></g></g></g><rect class="legendtoggle" x="0" y="-9.5" width="101.40625" height="19" style="fill: rgb(0, 0, 0); fill-opacity: 0;"/></g></g></g><rect class="scrollbar" rx="20" ry="3" width="0" height="0" style="fill: rgb(128, 139, 164); fill-opacity: 1;" x="0" y="0"/></g><g class="g-gtitle"><text class="gtitle" x="500" y="50" text-anchor="middle" dy="0.7em" style="font-family: system-ui; font-size: 20px; fill: rgb(0, 0, 0); opacity: 1; font-weight: bold; white-space: pre;">El Paso 2024-03-28</text></g><g class="g-xtitle"><text class="xtitle" x="472.5" y="460.3" text-anchor="middle" style="font-family: system-ui; font-size: 14px; fill: rgb(0, 0, 0); opacity: 1; white-space: pre;">Hora</text></g><g class="g-ytitle"><text class="ytitle" transform="rotate(-90,37.2875,260)" x="37.2875" y="260" text-anchor="middle" style="font-family: system-ui; font-size: 14px; fill: rgb(0, 0, 0); opacity: 1; white-space: pre;">Energía [kWh]</text></g><g class="annotation" data-index="0" style="opacity: 1;"><g class="annotation-text-g" transform="rotate(0,761.9499999999999,125.5)"><g class="cursor-pointer" transform="translate(682,100)"><rect class="bg" x="0.5" y="0.5" width="158" height="50" style="stroke-width: 1px; stroke: rgb(0, 0, 0); stroke-opacity: 1; fill: rgb(211, 211, 211); fill-opacity: 0.5;"/><text class="annotation-text" text-anchor="end" x="157.34375" y="15" style="font-family: system-ui; font-size: 12px; fill: rgb(0, 0, 0); fill-opacity: 1; white-space: pre;"><tspan class="line" dy="0em" x="157.34375" y="15">Energía 515.7 MWh-dia </tspan><tspan class="line" dy="1.3em" x="157.34375" y="15">Despacho 659.0 MWh-dia </tspan><tspan class="line" dy="2.6em" x="157.34375" y="15"> Redespacho 491.0 MWh-dia </tspan></text></g></g></g></g></svg>