<svg class="main-svg" xmlns="http://www.w3.org/2000/svg" xmlns:xlink="http://www.w3.org/1999/xlink" width="1000" height="500" style="" viewBox="0 0 1000 500"><rect x="0" y="0" width="1000" height="500" style="fill: rgb(255, 255, 255); fill-opacity: 1;"/><defs id="defs-cb6d95"><g class="clips"><clipPath id="clipcb6d95xyplot" class="plotclip"><rect width="832" height="320"/></clipPath><clipPath class="axesclip" id="clipcb6d95x"><rect x="80" y="0" width="832" height="500"/></clipPath><clipPath class="axesclip" id="clipcb6d95y"><rect x="0" y="100" width="1000" height="320"/></clipPath><clipPath class="axesclip" id="clipcb6d95xy"><rect x="80" y="100" width="832" height="320"/></clipPath></g><g class="gradients"/><g class="patterns"/></defs><g class="bglayer"/><g class="layer-below"><g class="imagelayer"/><g class="shapelayer"/></g><g class="cartesianlayer"><g class="subplot xy"><g class="layer-subplot"><g class="shapelayer"/><g class="imagelayer"/></g><g class="minor-gridlayer"><g class="x"/><g class="y"/></g><g class="gridlayer"><g class="x"><path class="xgrid crisp" transform="translate(182.86,0)" d="M0,100v320" style="stroke: rgb(255, 255, 255); stroke-opacity: 1; stroke-width: 1px;"/><path class="xgrid crisp" transform="translate(361.8,0)" d="M0,100v320" style="stroke: rgb(255, 255, 255); stroke-opacity: 1; stroke-width: 1px;"/><path class="xgrid crisp" transform="translate(540.73,0)" d="M0,100v320" style="stroke: rgb(255, 255, 255); stroke-opacity: 1; stroke-width: 1px;"/><path class="xgrid crisp" transform="translate(719.67,0)" d="M0,100v320" style="stroke: rgb(255, 255, 255); stroke-opacity: 1; stroke-width: 1px;"/><path class="xgrid crisp" transform="translate(898.6,0)" d="M0,100v320" style="stroke: rgb(255, 255, 255); stroke-opacity: 1; stroke-width: 1px;"/></g><g class="y"><path class="ygrid crisp" transform="translate(0,364.27)" d="M80,0h832" style="stroke: rgb(229, 229, 229); stroke-opacity: 1; stroke-width: 1px;"/><path class="ygrid crisp" transform="translate(0,281.65999999999997)" d="M80,0h832" style="stroke: rgb(229, 229, 229); stroke-opacity: 1; stroke-width: 1px;"/><path class="ygrid crisp" transform="translate(0,199.05)" d="M80,0h832" style="stroke: rgb(229, 229, 229); stroke-opacity: 1; stroke-width: 1px;"/><path class="ygrid crisp" transform="translate(0,116.44)" d="M80,0h832" style="stroke: rgb(229, 229, 229); stroke-opacity: 1; stroke-width: 1px;"/></g></g><g class="zerolinelayer"/><g class="layer-between"><g class="shapelayer"/><g class="imagelayer"/></g><path class="xlines-below"/><path class="ylines-below"/><g class="overlines-below"/><g class="xaxislayer-below"/><g class="yaxislayer-below"/><g class="overaxes-below"/><g class="plot" transform="translate(80,100)" clip-path="url(#clipcb6d95xyplot)"><g class="scatterlayer mlayer"><g class="trace scatter tracea90f4e" style="stroke-miterlimit: 2; opacity: 1;"><g class="fills"/><g class="errorbars"/><g class="lines"><path class="js-line" d="M786.65,206.59L761.09,108.87L735.53,102.49L709.96,153.72L684.4,69.53L658.84,199.59L607.72,156.22L582.15,184.76L582.15,184.76L556.59,177.22L531.03,174.1L505.47,94.4L454.34,194.75L428.78,153.49L326.53,19.75L300.97,214.8L275.41,208.2L249.85,155.36L224.28,149.88L198.72,84.97L173.16,113.7L147.6,134.61L122.04,85.27L96.47,147.33L70.91,244.09L45.35,124.87" style="vector-effect: none; fill: none; stroke: rgb(25, 100, 126); stroke-opacity: 1; stroke-width: 2px; opacity: 1;"/></g><g class="points"><path class="point" transform="translate(786.65,206.59)" d="M3,0A3,3 0 1,1 0,-3A3,3 0 0,1 3,0Z" style="opacity: 1; stroke-width: 0px; fill: rgb(25, 100, 126); fill-opacity: 1;"/><path class="point" transform="translate(761.09,108.87)" d="M3,0A3,3 0 1,1 0,-3A3,3 0 0,1 3,0Z" style="opacity: 1; stroke-width: 0px; fill: rgb(25, 100, 126); fill-opacity: 1;"/><path class="point" transform="translate(735.53,102.49)" d="M3,0A3,3 0 1,1 0,-3A3,3 0 0,1 3,0Z" style="opacity: 1; stroke-width: 0px; fill: rgb(25, 100, 126); fill-opacity: 1;"/><path class="point" transform="translate(709.96,153.72)" d="M3,0A3,3 0 1,1 0,-3A3,3 0 0,1 3,0Z" style="opacity: 1; stroke-width: 0px; fill: rgb(25, 100, 126); fill-opacity: 1;"/><path class="point" transform="translate(684.4,69.53)" d="M3,0A3,3 0 1,1 0,-3A3,3 0 0,1 3,0Z" style="opacity: 1; stroke-width: 0px; fill: rgb(25, 100, 126); fill-opacity: 1;"/><path class="point" transform="translate(658.84,199.59)" d="M3,0A3,3 0 1,1 0,-3A3,3 0 0,1 3,0Z" style="opacity: 1; stroke-width: 0px; fill: rgb(25, 100, 126); fill-opacity: 1;"/><path class="point" transform="translate(607.72,156.22)" d="M3,0A3,3 0 1,1 0,-3A3,3 0 0,1 3,0Z" style="opacity: 1; stroke-width: 0px; fill: rgb(25, 100, 126); fill-opacity: 1;"/><path class="point" transform="translate(582.15,184.76)" d="M3,0A3,3 0 1,1 0,-3A3,3 0 0,1 3,0Z" style="opacity: 1; stroke-width: 0px; fill: rgb(25, 100, 126); fill-opacity: 1;"/><path class="point" transform="translate(582.15,184.76)" d="M3,0A3,3 0 1,1 0,-3A3,3 0 0,1 3,0Z" style="opacity: 1; stroke-width: 0px; fill: rgb(25, 100, 126); fill-opacity: 1;"/><path class="point" transform="translate(556.59,177.22)" d="M3,0A3,3 0 1,1 0,-3A3,3 0 0,1 3,0Z" style="opacity: 1; stroke-width: 0px; fill: rgb(25, 100, 126); fill-opacity: 1;"/><path class="point" transform="translate(531.03,174.1)" d="M3,0A3,3 0 1,1 0,-3A3,3 0 0,1 3,0Z" style="opacity: 1; stroke-width: 0px; fill: rgb(25, 100, 126); fill-opacity: 1;"/><path class="point" transform="translate(505.47,94.4)" d="M3,0A3,3 0 1,1 0,-3A3,3 0 0,1 3,0Z" style="opacity: 1; stroke-width: 0px; fill: rgb(25, 100, 126); fill-opacity: 1;"/><path class="point" transform="translate(454.34,194.75)" d="M3,0A3,3 0 1,1 0,-3A3,3 0 0,1 3,0Z" style="opacity: 1; stroke-width: 0px; fill: rgb(25, 100, 126); fill-opacity: 1;"/><path class="point" transform="translate(428.78,153.49)" d="M3,0A3,3 0 1,1 0,-3A3,3 0 0,1 3,0Z" style="opacity: 1; stroke-width: 0px; fill: rgb(25, 100, 126); fill-opacity: 1;"/><path class="point" transform="translate(428.78,153.49)" d="M3,0A3,3 0 1,1 0,-3A3,3 0 0,1 3,0Z" style="opacity: 1; stroke-width: 0px; fill: rgb(25, 100, 126); fill-opacity: 1;"/><path class="point" transform="translate(326.53,19.75)" d="M3,0A3,3 0 1,1 0,-3A3,3 0 0,1 3,0Z" style="opacity: 1; stroke-width: 0px; fill: rgb(25, 100, 126); fill-opacity: 1;"/><path class="point" transform="translate(300.97,214.8)" d="M3,0A3,3 0 1,1 0,-3A3,3 0 0,1 3,0Z" style="opacity: 1; stroke-width: 0px; fill: rgb(25, 100, 126); fill-opacity: 1;"/><path class="point" transform="translate(300.97,214.8)" d="M3,0A3,3 0 1,1 0,-3A3,3 0 0,1 3,0Z" style="opacity: 1; stroke-width: 0px; fill: rgb(25, 100, 126); fill-opacity: 1;"/><path class="point" transform="translate(300.97,214.8)" d="M3,0A3,3 0 1,1 0,-3A3,3 0 0,1 3,0Z" style="opacity: 1; stroke-width: 0px; fill: rgb(25, 100, 126); fill-opacity: 1;"/><path class="point" transform="translate(300.97,214.8)" d="M3,0A3,3 0 1,1 0,-3A3,3 0 0,1 3,0Z" style="opacity: 1; stroke-width: 0px; fill: rgb(25, 100, 126); fill-opacity: 1;"/><path class="point" transform="translate(275.41,208.2)" d="M3,0A3,3 0 1,1 0,-3A3,3 0 0,1 3,0Z" style="opacity: 1; stroke-width: 0px; fill: rgb(25, 100, 126); fill-opacity: 1;"/><path class="point" transform="translate(249.85,155.36)" d="M3,0A3,3 0 1,1 0,-3A3,3 0 0,1 3,0Z" style="opacity: 1; stroke-width: 0px; fill: rgb(25, 100, 126); fill-opacity: 1;"/><path class="point" transform="translate(224.28,149.88)" d="M3,0A3,3 0 1,1 0,-3A3,3 0 0,1 3,0Z" style="opacity: 1; stroke-width: 0px; fill: rgb(25, 100, 126); fill-opacity: 1;"/><path class="point" transform="translate(198.72,84.97)" d="M3,0A3,3 0 1,1 0,-3A3,3 0 0,1 3,0Z" style="opacity: 1; stroke-width: 0px; fill: rgb(25, 100, 126); fill-opacity: 1;"/><path class="point" transform="translate(173.16,113.7)" d="M3,0A3,3 0 1,1 0,-3A3,3 0 0,1 3,0Z" style="opacity: 1; stroke-width: 0px; fill: rgb(25, 100, 126); fill-opacity: 1;"/><path class="point" transform="translate(147.6,134.61)" d="M3,0A3,3 0 1,1 0,-3A3,3 0 0,1 3,0Z" style="opacity: 1; stroke-width: 0px; fill: rgb(25, 100, 126); fill-opacity: 1;"/><path class="point" transform="translate(122.04,85.27)" d="M3,0A3,3 0 1,1 0,-3A3,3 0 0,1 3,0Z" style="opacity: 1; stroke-width: 0px; fill: rgb(25, 100, 126); fill-opacity: 1;"/><path class="point" transform="translate(96.47,147.33)" d="M3,0A3,3 0 1,1 0,-3A3,3 0 0,1 3,0Z" style="opacity: 1; stroke-width: 0px; fill: rgb(25, 100, 126); fill-opacity: 1;"/><path class="point" transform="translate(70.91,244.09)" d="M3,0A3,3 0 1,1 0,-3A3,3 0 0,1 3,0Z" style="opacity: 1; stroke-width: 0px; fill: rgb(25, 100, 126); fill-opacity: 1;"/><path class="point" transform="translate(45.35,124.87)" d="M3,0A3,3 0 1,1 0,-3A3,3 0 0,1 3,0Z" style="opacity: 1; stroke-width: 0px; fill: rgb(25, 100, 126); fill-opacity: 1;"/></g><g class="text"/></g><g class="trace scatter trace3eaa9d" style="stroke-miterlimit: 2; opacity: 1;"><g class="fills"/><g class="errorbars"/><g class="lines"><path class="js-line" d="M786.65,206.91L761.09,111.87L735.53,102.82L709.96,153.93L684.4,68.88L658.84,198.97L607.72,149.74L582.15,185.76L582.15,185.76L556.59,177.99L531.03,174.78L505.47,99.49L454.34,194.71L428.78,159.11L326.53,22.53L300.97,221.8L275.41,202.69L249.85,160.13L224.28,155.02L198.72,92.61L173.16,115.79L147.6,132.69L122.04,83.59L96.47,150.39L70.91,241.49L45.35,127.45" style="vector-effect: none; fill: none; stroke: rgb(250, 128, 114); stroke-opacity: 1; stroke-width: 2px; opacity: 1;"/></g><g class="points"><path class="point" transform="translate(786.65,206.91)" d="M3,0A3,3 0 1,1 0,-3A3,3 0 0,1 3,0Z" style="opacity: 1; stroke-width: 0px; fill: rgb(250, 128, 114); fill-opacity: 1;"/><path class="point" transform="translate(761.09,111.87)" d="M3,0A3,3 0 1,1 0,-3A3,3 0 0,1 3,0Z" style="opacity: 1; stroke-width: 0px; fill: rgb(250, 128, 114); fill-opacity: 1;"/><path class="point" transform="translate(735.53,102.82)" d="M3,0A3,3 0 1,1 0,-3A3,3 0 0,1 3,0Z" style="opacity: 1; stroke-width: 0px; fill: rgb(250, 128, 114); fill-opacity: 1;"/><path class="point" transform="translate(709.96,153.93)" d="M3,0A3,3 0 1,1 0,-3A3,3 0 0,1 3,0Z" style="opacity: 1; stroke-width: 0px; fill: rgb(250, 128, 114); fill-opacity: 1;"/><path class="point" transform="translate(684.4,68.88)" d="M3,0A3,3 0 1,1 0,-3A3,3 0 0,1 3,0Z" style="opacity: 1; stroke-width: 0px; fill: rgb(250, 128, 114); fill-opacity: 1;"/><path class="point" transform="translate(658.84,198.97)" d="M3,0A3,3 0 1,1 0,-3A3,3 0 0,1 3,0Z" style="opacity: 1; stroke-width: 0px; fill: rgb(250, 128, 114); fill-opacity: 1;"/><path class="point" transform="translate(607.72,149.74)" d="M3,0A3,3 0 1,1 0,-3A3,3 0 0,1 3,0Z" style="opacity: 1; stroke-width: 0px; fill: rgb(250, 128, 114); fill-opacity: 1;"/><path class="point" transform="translate(582.15,185.76)" d="M3,0A3,3 0 1,1 0,-3A3,3 0 0,1 3,0Z" style="opacity: 1; stroke-width: 0px; fill: rgb(250, 128, 114); fill-opacity: 1;"/><path class="point" transform="translate(582.15,185.76)" d="M3,0A3,3 0 1,1 0,-3A3,3 0 0,1 3,0Z" style="opacity: 1; stroke-width: 0px; fill: rgb(250, 128, 114); fill-opacity: 1;"/><path class="point" transform="translate(556.59,177.99)" d="M3,0A3,3 0 1,1 0,-3A3,3 0 0,1 3,0Z" style="opacity: 1; stroke-width: 0px; fill: rgb(250, 128, 114); fill-opacity: 1;"/><path class="point" transform="translate(531.03,174.78)" d="M3,0A3,3 0 1,1 0,-3A3,3 0 0,1 3,0Z" style="opacity: 1; stroke-width: 0px; fill: rgb(250, 128, 114); fill-opacity: 1;"/><path class="point" transform="translate(505.47,99.49)" d="M3,0A3,3 0 1,1 0,-3A3,3 0 0,1 3,0Z" style="opacity: 1; stroke-width: 0px; fill: rgb(250, 128, 114); fill-opacity: 1;"/><path class="point" transform="translate(454.34,194.71)" d="M3,0A3,3 0 1,1 0,-3A3,3 0 0,1 3,0Z" style="opacity: 1; stroke-width: 0px; fill: rgb(250, 128, 114); fill-opacity: 1;"/><path class="point" transform="translate(428.78,159.11)" d="M3,0A3,3 0 1,1 0,-3A3,3 0 0,1 3,0Z" style="opacity: 1; stroke-width: 0px; fill: rgb(250, 128, 114); fill-opacity: 1;"/><path class="point" transform="translate(428.78,159.11)" d="M3,0A3,3 0 1,1 0,-3A3,3 0 0,1 3,0Z" style="opacity: 1; stroke-width: 0px; fill: rgb(250, 128, 114); fill-opacity: 1;"/><path class="point" transform="translate(326.53,22.53)" d="M3,0A3,3 0 1,1 0,-3A3,3 0 0,1 3,0Z" style="opacity: 1; stroke-width: 0px; fill: rgb(250, 128, 114); fill-opacity: 1;"/><path class="point" transform="translate(300.97,221.8)" d="M3,0A3,3 0 1,1 0,-3A3,3 0 0,1 3,0Z" style="opacity: 1; stroke-width: 0px; fill: rgb(250, 128, 114); fill-opacity: 1;"/><path class="point" transform="translate(300.97,221.8)" d="M3,0A3,3 0 1,1 0,-3A3,3 0 0,1 3,0Z" style="opacity: 1; stroke-width: 0px; fill: rgb(250, 128, 114); fill-opacity: 1;"/><path class="point" transform="translate(300.97,221.8)" d="M3,0A3,3 0 1,1 0,-3A3,3 0 0,1 3,0Z" style="opacity: 1; stroke-width: 0px; fill: rgb(250, 128, 114); fill-opacity: 1;"/><path class="point" transform="translate(300.97,221.8)" d="M3,0A3,3 0 1,1 0,-3A3,3 0 0,1 3,0Z" style="opacity: 1; stroke-width: 0px; fill: rgb(250, 128, 114); fill-opacity: 1;"/><path class="point" transform="translate(275.41,202.69)" d="M3,0A3,3 0 1,1 0,-3A3,3 0 0,1 3,0Z" style="opacity: 1; stroke-width: 0px; fill: rgb(250, 128, 114); fill-opacity: 1;"/><path class="point" transform="translate(249.85,160.13)" d="M3,0A3,3 0 1,1 0,-3A3,3 0 0,1 3,0Z" style="opacity: 1; stroke-width: 0px; fill: rgb(250, 128, 114); fill-opacity: 1;"/><path class="point" transform="translate(224.28,155.02)" d="M3,0A3,3 0 1,1 0,-3A3,3 0 0,1 3,0Z" style="opacity: 1; stroke-width: 0px; fill: rgb(250, 128, 114); fill-opacity: 1;"/><path class="point" transform="translate(198.72,92.61)" d="M3,0A3,3 0 1,1 0,-3A3,3 0 0,1 3,0Z" style="opacity: 1; stroke-width: 0px; fill: rgb(250, 128, 114); fill-opacity: 1;"/><path class="point" transform="translate(173.16,115.79)" d="M3,0A3,3 0 1,1 0,-3A3,3 0 0,1 3,0Z" style="opacity: 1; stroke-width: 0px; fill: rgb(250, 128, 114); fill-opacity: 1;"/><path class="point" transform="translate(147.6,132.69)" d="M3,0A3,3 0 1,1 0,-3A3,3 0 0,1 3,0Z" style="opacity: 1; stroke-width: 0px; fill: rgb(250, 128, 114); fill-opacity: 1;"/><path class="point" transform="translate(122.04,83.59)" d="M3,0A3,3 0 1,1 0,-3A3,3 0 0,1 3,0Z" style="opacity: 1; stroke-width: 0px; fill: rgb(250, 128, 114); fill-opacity: 1;"/><path class="point" transform="translate(96.47,150.39)" d="M3,0A3,3 0 1,1 0,-3A3,3 0 0,1 3,0Z" style="opacity: 1; stroke-width: 0px; fill: rgb(250, 128, 114); fill-opacity: 1;"/><path class="point" transform="translate(70.91,241.49)" d="M3,0A3,3 0 1,1 0,-3A3,3 0 0,1 3,0Z" style="opacity: 1; stroke-width: 0px; fill: rgb(250, 128, 114); fill-opacity: 1;"/><path class="point" transform="translate(45.35,127.45)" d="M3,0A3,3 0 1,1 0,-3A3,3 0 0,1 3,0Z" style="opacity: 1; stroke-width: 0px; fill: rgb(250, 128, 114); fill-opacity: 1;"/></g><g class="text"/></g><g class="trace scatter trace7684b4" style="stroke-miterlimit: 2; opacity: 1;"><g class="fills"/><g class="errorbars"/><g class="lines"><path class="js-line" d="M786.65,268.41L761.09,223.27L735.53,171.04L709.96,215.88L684.4,86.87L658.84,267.84L607.72,228.08L582.15,230.41L556.59,229.63L531.03,264.11L505.47,150.63L454.34,234.21L428.78,237.52L326.53,152.36L300.97,292.57L275.41,249.7L249.85,236.16L224.28,221.09L198.72,174.51L173.16,190.3L147.6,159.84L122.04,195.53L96.47,194.46L70.91,278.78L45.35,217.32" style="vector-effect: none; fill: none; stroke: rgb(40, 175, 176); stroke-opacity: 1; stroke-width: 2px; opacity: 1;"/></g><g class="points"><path class="point" transform="translate(786.65,268.41)" d="M3,0A3,3 0 1,1 0,-3A3,3 0 0,1 3,0Z" style="opacity: 1; stroke-width: 0px; fill: rgb(40, 175, 176); fill-opacity: 1;"/><path class="point" transform="translate(761.09,223.27)" d="M3,0A3,3 0 1,1 0,-3A3,3 0 0,1 3,0Z" style="opacity: 1; stroke-width: 0px; fill: rgb(40, 175, 176); fill-opacity: 1;"/><path class="point" transform="translate(735.53,171.04)" d="M3,0A3,3 0 1,1 0,-3A3,3 0 0,1 3,0Z" style="opacity: 1; stroke-width: 0px; fill: rgb(40, 175, 176); fill-opacity: 1;"/><path class="point" transform="translate(709.96,215.88)" d="M3,0A3,3 0 1,1 0,-3A3,3 0 0,1 3,0Z" style="opacity: 1; stroke-width: 0px; fill: rgb(40, 175, 176); fill-opacity: 1;"/><path class="point" transform="translate(684.4,86.87)" d="M3,0A3,3 0 1,1 0,-3A3,3 0 0,1 3,0Z" style="opacity: 1; stroke-width: 0px; fill: rgb(40, 175, 176); fill-opacity: 1;"/><path class="point" transform="translate(658.84,267.84)" d="M3,0A3,3 0 1,1 0,-3A3,3 0 0,1 3,0Z" style="opacity: 1; stroke-width: 0px; fill: rgb(40, 175, 176); fill-opacity: 1;"/><path class="point" transform="translate(607.72,228.08)" d="M3,0A3,3 0 1,1 0,-3A3,3 0 0,1 3,0Z" style="opacity: 1; stroke-width: 0px; fill: rgb(40, 175, 176); fill-opacity: 1;"/><path class="point" transform="translate(582.15,230.41)" d="M3,0A3,3 0 1,1 0,-3A3,3 0 0,1 3,0Z" style="opacity: 1; stroke-width: 0px; fill: rgb(40, 175, 176); fill-opacity: 1;"/><path class="point" transform="translate(582.15,230.41)" d="M3,0A3,3 0 1,1 0,-3A3,3 0 0,1 3,0Z" style="opacity: 1; stroke-width: 0px; fill: rgb(40, 175, 176); fill-opacity: 1;"/><path class="point" transform="translate(556.59,229.63)" d="M3,0A3,3 0 1,1 0,-3A3,3 0 0,1 3,0Z" style="opacity: 1; stroke-width: 0px; fill: rgb(40, 175, 176); fill-opacity: 1;"/><path class="point" transform="translate(531.03,264.11)" d="M3,0A3,3 0 1,1 0,-3A3,3 0 0,1 3,0Z" style="opacity: 1; stroke-width: 0px; fill: rgb(40, 175, 176); fill-opacity: 1;"/><path class="point" transform="translate(505.47,150.63)" d="M3,0A3,3 0 1,1 0,-3A3,3 0 0,1 3,0Z" style="opacity: 1; stroke-width: 0px; fill: rgb(40, 175, 176); fill-opacity: 1;"/><path class="point" transform="translate(454.34,234.21)" d="M3,0A3,3 0 1,1 0,-3A3,3 0 0,1 3,0Z" style="opacity: 1; stroke-width: 0px; fill: rgb(40, 175, 176); fill-opacity: 1;"/><path class="point" transform="translate(428.78,237.52)" d="M3,0A3,3 0 1,1 0,-3A3,3 0 0,1 3,0Z" style="opacity: 1; stroke-width: 0px; fill: rgb(40, 175, 176); fill-opacity: 1;"/><path class="point" transform="translate(428.78,237.52)" d="M3,0A3,3 0 1,1 0,-3A3,3 0 0,1 3,0Z" style="opacity: 1; stroke-width: 0px; fill: rgb(40, 175, 176); fill-opacity: 1;"/><path class="point" transform="translate(326.53,152.36)" d="M3,0A3,3 0 1,1 0,-3A3,3 0 0,1 3,0Z" style="opacity: 1; stroke-width: 0px; fill: rgb(40, 175, 176); fill-opacity: 1;"/><path class="point" transform="translate(300.97,292.57)" d="M3,0A3,3 0 1,1 0,-3A3,3 0 0,1 3,0Z" style="opacity: 1; stroke-width: 0px; fill: rgb(40, 175, 176); fill-opacity: 1;"/><path class="point" transform="translate(300.97,292.57)" d="M3,0A3,3 0 1,1 0,-3A3,3 0 0,1 3,0Z" style="opacity: 1; stroke-width: 0px; fill: rgb(40, 175, 176); fill-opacity: 1;"/><path class="point" transform="translate(300.97,292.57)" d="M3,0A3,3 0 1,1 0,-3A3,3 0 0,1 3,0Z" style="opacity: 1; stroke-width: 0px; fill: rgb(40, 175, 176); fill-opacity: 1;"/><path class="point" transform="translate(300.97,292.57)" d="M3,0A3,3 0 1,1 0,-3A3,3 0 0,1 3,0Z" style="opacity: 1; stroke-width: 0px; fill: rgb(40, 175, 176); fill-opacity: 1;"/><path class="point" transform="translate(275.41,249.7)" d="M3,0A3,3 0 1,1 0,-3A3,3 0 0,1 3,0Z" style="opacity: 1; stroke-width: 0px; fill: rgb(40, 175, 176); fill-opacity: 1;"/><path class="point" transform="translate(249.85,236.16)" d="M3,0A3,3 0 1,1 0,-3A3,3 0 0,1 3,0Z" style="opacity: 1; stroke-width: 0px; fill: rgb(40, 175, 176); fill-opacity: 1;"/><path class="point" transform="translate(224.28,221.09)" d="M3,0A3,3 0 1,1 0,-3A3,3 0 0,1 3,0Z" style="opacity: 1; stroke-width: 0px; fill: rgb(40, 175, 176); fill-opacity: 1;"/><path class="point" transform="translate(198.72,174.51)" d="M3,0A3,3 0 1,1 0,-3A3,3 0 0,1 3,0Z" style="opacity: 1; stroke-width: 0px; fill: rgb(40, 175, 176); fill-opacity: 1;"/><path class="point" transform="translate(173.16,190.3)" d="M3,0A3,3 0 1,1 0,-3A3,3 0 0,1 3,0Z" style="opacity: 1; stroke-width: 0px; fill: rgb(40, 175, 176); fill-opacity: 1;"/><path class="point" transform="translate(147.6,159.84)" d="M3,0A3,3 0 1,1 0,-3A3,3 0 0,1 3,0Z" style="opacity: 1; stroke-width: 0px; fill: rgb(40, 175, 176); fill-opacity: 1;"/><path class="point" transform="translate(122.04,195.53)" d="M3,0A3,3 0 1,1 0,-3A3,3 0 0,1 3,0Z" style="opacity: 1; stroke-width: 0px; fill: rgb(40, 175, 176); fill-opacity: 1;"/><path class="point" transform="translate(96.47,194.46)" d="M3,0A3,3 0 1,1 0,-3A3,3 0 0,1 3,0Z" style="opacity: 1; stroke-width: 0px; fill: rgb(40, 175, 176); fill-opacity: 1;"/><path class="point" transform="translate(70.91,278.78)" d="M3,0A3,3 0 1,1 0,-3A3,3 0 0,1 3,0Z" style="opacity: 1; stroke-width: 0px; fill: rgb(40, 175, 176); fill-opacity: 1;"/><path class="point" transform="translate(45.35,217.32)" d="M3,0A3,3 0 1,1 0,-3A3,3 0 0,1 3,0Z" style="opacity: 1; stroke-width: 0px; fill: rgb(40, 175, 176); fill-opacity: 1;"/></g><g class="text"/></g><g class="trace scatter trace0a40ef" style="stroke-miterlimit: 2; opacity: 1;"><g class="fills"/><g class="errorbars"/><g class="lines"><path class="js-line" d="M786.65,268.44L761.09,240.05L735.53,232.97L709.96,249.07L684.4,130.1L658.84,283.73L607.72,238.7L582.15,266.24L582.15,266.24L556.59,243.76L531.03,285.48L505.47,249.4L454.34,253.45L428.78,274.68L326.53,216.61L300.97,274.3L275.41,271.85L249.85,272.88L224.28,244.95L198.72,223.07L173.16,226.28L147.6,208.25L122.04,223.43L96.47,272.65L70.91,300.25L45.35,279.91" style="vector-effect: none; fill: none; stroke: rgb(238, 150, 75); stroke-opacity: 1; stroke-width: 2px; opacity: 1;"/></g><g class="points"><path class="point" transform="translate(786.65,268.44)" d="M3,0A3,3 0 1,1 0,-3A3,3 0 0,1 3,0Z" style="opacity: 1; stroke-width: 0px; fill: rgb(238, 150, 75); fill-opacity: 1;"/><path class="point" transform="translate(761.09,240.05)" d="M3,0A3,3 0 1,1 0,-3A3,3 0 0,1 3,0Z" style="opacity: 1; stroke-width: 0px; fill: rgb(238, 150, 75); fill-opacity: 1;"/><path class="point" transform="translate(735.53,232.97)" d="M3,0A3,3 0 1,1 0,-3A3,3 0 0,1 3,0Z" style="opacity: 1; stroke-width: 0px; fill: rgb(238, 150, 75); fill-opacity: 1;"/><path class="point" transform="translate(709.96,249.07)" d="M3,0A3,3 0 1,1 0,-3A3,3 0 0,1 3,0Z" style="opacity: 1; stroke-width: 0px; fill: rgb(238, 150, 75); fill-opacity: 1;"/><path class="point" transform="translate(684.4,130.1)" d="M3,0A3,3 0 1,1 0,-3A3,3 0 0,1 3,0Z" style="opacity: 1; stroke-width: 0px; fill: rgb(238, 150, 75); fill-opacity: 1;"/><path class="point" transform="translate(658.84,283.73)" d="M3,0A3,3 0 1,1 0,-3A3,3 0 0,1 3,0Z" style="opacity: 1; stroke-width: 0px; fill: rgb(238, 150, 75); fill-opacity: 1;"/><path class="point" transform="translate(607.72,238.7)" d="M3,0A3,3 0 1,1 0,-3A3,3 0 0,1 3,0Z" style="opacity: 1; stroke-width: 0px; fill: rgb(238, 150, 75); fill-opacity: 1;"/><path class="point" transform="translate(582.15,266.24)" d="M3,0A3,3 0 1,1 0,-3A3,3 0 0,1 3,0Z" style="opacity: 1; stroke-width: 0px; fill: rgb(238, 150, 75); fill-opacity: 1;"/><path class="point" transform="translate(582.15,266.24)" d="M3,0A3,3 0 1,1 0,-3A3,3 0 0,1 3,0Z" style="opacity: 1; stroke-width: 0px; fill: rgb(238, 150, 75); fill-opacity: 1;"/><path class="point" transform="translate(556.59,243.76)" d="M3,0A3,3 0 1,1 0,-3A3,3 0 0,1 3,0Z" style="opacity: 1; stroke-width: 0px; fill: rgb(238, 150, 75); fill-opacity: 1;"/><path class="point" transform="translate(531.03,285.48)" d="M3,0A3,3 0 1,1 0,-3A3,3 0 0,1 3,0Z" style="opacity: 1; stroke-width: 0px; fill: rgb(238, 150, 75); fill-opacity: 1;"/><path class="point" transform="translate(505.47,249.4)" d="M3,0A3,3 0 1,1 0,-3A3,3 0 0,1 3,0Z" style="opacity: 1; stroke-width: 0px; fill: rgb(238, 150, 75); fill-opacity: 1;"/><path class="point" transform="translate(454.34,253.45)" d="M3,0A3,3 0 1,1 0,-3A3,3 0 0,1 3,0Z" style="opacity: 1; stroke-width: 0px; fill: rgb(238, 150, 75); fill-opacity: 1;"/><path class="point" transform="translate(428.78,274.68)" d="M3,0A3,3 0 1,1 0,-3A3,3 0 0,1 3,0Z" style="opacity: 1; stroke-width: 0px; fill: rgb(238, 150, 75); fill-opacity: 1;"/><path class="point" transform="translate(428.78,274.68)" d="M3,0A3,3 0 1,1 0,-3A3,3 0 0,1 3,0Z" style="opacity: 1; stroke-width: 0px; fill: rgb(238, 150, 75); fill-opacity: 1;"/><path class="point" transform="translate(326.53,216.61)" d="M3,0A3,3 0 1,1 0,-3A3,3 0 0,1 3,0Z" style="opacity: 1; stroke-width: 0px; fill: rgb(238, 150, 75); fill-opacity: 1;"/><path class="point" transform="translate(300.97,274.3)" d="M3,0A3,3 0 1,1 0,-3A3,3 0 0,1 3,0Z" style="opacity: 1; stroke-width: 0px; fill: rgb(238, 150, 75); fill-opacity: 1;"/><path class="point" transform="translate(300.97,274.3)" d="M3,0A3,3 0 1,1 0,-3A3,3 0 0,1 3,0Z" style="opacity: 1; stroke-width: 0px; fill: rgb(238, 150, 75); fill-opacity: 1;"/><path class="point" transform="translate(300.97,274.3)" d="M3,0A3,3 0 1,1 0,-3A3,3 0 0,1 3,0Z" style="opacity: 1; stroke-width: 0px; fill: rgb(238, 150, 75); fill-opacity: 1;"/><path class="point" transform="translate(300.97,274.3)" d="M3,0A3,3 0 1,1 0,-3A3,3 0 0,1 3,0Z" style="opacity: 1; stroke-width: 0px; fill: rgb(238, 150, 75); fill-opacity: 1;"/><path class="point" transform="translate(275.41,271.85)" d="M3,0A3,3 0 1,1 0,-3A3,3 0 0,1 3,0Z" style="opacity: 1; stroke-width: 0px; fill: rgb(238, 150, 75); fill-opacity: 1;"/><path class="point" transform="translate(249.85,272.88)" d="M3,0A3,3 0 1,1 0,-3A3,3 0 0,1 3,0Z" style="opacity: 1; stroke-width: 0px; fill: rgb(238, 150, 75); fill-opacity: 1;"/><path class="point" transform="translate(224.28,244.95)" d="M3,0A3,3 0 1,1 0,-3A3,3 0 0,1 3,0Z" style="opacity: 1; stroke-width: 0px; fill: rgb(238, 150, 75); fill-opacity: 1;"/><path class="point" transform="translate(198.72,223.07)" d="M3,0A3,3 0 1,1 0,-3A3,3 0 0,1 3,0Z" style="opacity: 1; stroke-width: 0px; fill: rgb(238, 150, 75); fill-opacity: 1;"/><path class="point" transform="translate(173.16,226.28)" d="M3,0A3,3 0 1,1 0,-3A3,3 0 0,1 3,0Z" style="opacity: 1; stroke-width: 0px; fill: rgb(238, 150, 75); fill-opacity: 1;"/><path class="point" transform="translate(147.6,208.25)" d="M3,0A3,3 0 1,1 0,-3A3,3 0 0,1 3,0Z" style="opacity: 1; stroke-width: 0px; fill: rgb(238, 150, 75); fill-opacity: 1;"/><path class="point" transform="translate(122.04,223.43)" d="M3,0A3,3 0 1,1 0,-3A3,3 0 0,1 3,0Z" style="opacity: 1; stroke-width: 0px; fill: rgb(238, 150, 75); fill-opacity: 1;"/><path class="point" transform="translate(96.47,272.65)" d="M3,0A3,3 0 1,1 0,-3A3,3 0 0,1 3,0Z" style="opacity: 1; stroke-width: 0px; fill: rgb(238, 150, 75); fill-opacity: 1;"/><path class="point" transform="translate(70.91,300.25)" d="M3,0A3,3 0 1,1 0,-3A3,3 0 0,1 3,0Z" style="opacity: 1; stroke-width: 0px; fill: rgb(238, 150, 75); fill-opacity: 1;"/><path class="point" transform="translate(45.35,279.91)" d="M3,0A3,3 0 1,1 0,-3A3,3 0 0,1 3,0Z" style="opacity: 1; stroke-width: 0px; fill: rgb(238, 150, 75); fill-opacity: 1;"/></g><g class="text"/></g></g></g><g class="overplot"/><path class="xlines-above crisp" d="M0,0" style="fill: none;"/><path class="ylines-above crisp" d="M79.5,100V420M912.5,100V420" style="fill: none; stroke-width: 1px; stroke: rgb(0, 0, 0); stroke-opacity: 1;"/><g class="overlines-above"/><g class="xaxislayer-above"><g class="xtick"><text text-anchor="middle" x="0" y="433" transform="translate(182.86,0)" style="font-family: system-ui; font-size: 12px; fill: rgb(0, 0, 0); fill-opacity: 1; white-space: pre; opacity: 1;"><tspan class="line" dy="0em" x="0" y="433">May 26</tspan><tspan class="line" dy="1.3em" x="0" y="433">2024</tspan></text></g><g class="xtick"><text text-anchor="middle" x="0" y="433" style="font-family: system-ui; font-size: 12px; fill: rgb(0, 0, 0); fill-opacity: 1; white-space: pre; opacity: 1;" transform="translate(361.8,0)">Jun 2</text></g><g class="xtick"><text text-anchor="middle" x="0" y="433" style="font-family: system-ui; font-size: 12px; fill: rgb(0, 0, 0); fill-opacity: 1; white-space: pre; opacity: 1;" transform="translate(540.73,0)">Jun 9</text></g><g class="xtick"><text text-anchor="middle" x="0" y="433" style="font-family: system-ui; font-size: 12px; fill: rgb(0, 0, 0); fill-opacity: 1; white-space: pre; opacity: 1;" transform="translate(719.67,0)">Jun 16</text></g><g class="xtick"><text text-anchor="middle" x="0" y="433" style="font-family: system-ui; font-size: 12px; fill: rgb(0, 0, 0); fill-opacity: 1; white-space: pre; opacity: 1;" transform="translate(898.6,0)">Jun 23</text></g></g><g class="yaxislayer-above"><g class="ytick"><text text-anchor="end" x="76.6" y="4.199999999999999" transform="translate(0,364.27)" style="font-family: system-ui; font-size: 12px; fill: rgb(0, 0, 0); fill-opacity: 1; white-space: pre; opacity: 1;">0.5</text></g><g class="ytick"><text text-anchor="end" x="76.6" y="4.199999999999999" style="font-family: system-ui; font-size: 12px; fill: rgb(0, 0, 0); fill-opacity: 1; white-space: pre; opacity: 1;" transform="translate(0,281.65999999999997)">1</text></g><g class="ytick"><text text-anchor="end" x="76.6" y="4.199999999999999" style="font-family: system-ui; font-size: 12px; fill: rgb(0, 0, 0); fill-opacity: 1; white-space: pre; opacity: 1;" transform="translate(0,199.05)">1.5</text></g><g class="ytick"><text text-anchor="end" x="76.6" y="4.199999999999999" style="font-family: system-ui; font-size: 12px; fill: rgb(0, 0, 0); fill-opacity: 1; white-space: pre; opacity: 1;" transform="translate(0,116.44)">2</text></g></g><g class="overaxes-above"/></g></g><g class="polarlayer"/><g class="smithlayer"/><g class="ternarylayer"/><g class="geolayer"/><g class="funnelarealayer"/><g class="pielayer"/><g class="iciclelayer"/><g class="treemaplayer"/><g class="sunburstlayer"/><g class="glimages"/><defs id="topdefs-cb6d95"><g class="clips"/><clipPath id="legendcb6d95"><rect width="59" height="86" x="0" y="0"/></clipPath></defs><g class="layer-above"><g class="imagelayer"/><g class="shapelayer"/></g><g class="infolayer"><g class="legend" pointer-events="all" transform="translate(928.64,100)"><rect class="bg" shape-rendering="crispEdges" style="stroke: rgb(68, 68, 68); stroke-opacity: 1; fill: rgb(255, 255, 255); fill-opacity: 1; stroke-width: 0px;" width="59" height="86" x="0" y="0"/><g class="scrollbox" transform="" clip-path="url(#legendcb6d95)"><g class="groups"><g class="traces" transform="translate(0,14.5)" style="opacity: 1;"><text class="legendtext" text-anchor="start" x="40" y="4.680000000000001" style="font-family: system-ui; font-size: 12px; fill: rgb(0, 0, 0); fill-opacity: 1; white-space: pre;">30</text><g class="layers" style="opacity: 1;"><g class="legendfill"/><g class="legendlines"><path class="js-line" d="M5,0h30" style="fill: none; stroke: rgb(25, 100, 126); stroke-opacity: 1; stroke-width: 2px;"/></g><g class="legendsymbols"><g class="legendpoints"><path class="scatterpts" transform="translate(20,0)" d="M3,0A3,3 0 1,1 0,-3A3,3 0 0,1 3,0Z" style="opacity: 1; stroke-width: 0px; fill: rgb(25, 100, 126); fill-opacity: 1;"/></g></g></g><rect class="legendtoggle" x="0" y="-9.5" width="53.46875" height="19" style="fill: rgb(0, 0, 0); fill-opacity: 0;"/></g><g class="traces" transform="translate(0,33.5)" style="opacity: 1;"><text class="legendtext" text-anchor="start" x="40" y="4.680000000000001" style="font-family: system-ui; font-size: 12px; fill: rgb(0, 0, 0); fill-opacity: 1; white-space: pre;">18</text><g class="layers" style="opacity: 1;"><g class="legendfill"/><g class="legendlines"><path class="js-line" d="M5,0h30" style="fill: none; stroke: rgb(250, 128, 114); stroke-opacity: 1; stroke-width: 2px;"/></g><g class="legendsymbols"><g class="legendpoints"><path class="scatterpts" transform="translate(20,0)" d="M3,0A3,3 0 1,1 0,-3A3,3 0 0,1 3,0Z" style="opacity: 1; stroke-width: 0px; fill: rgb(250, 128, 114); fill-opacity: 1;"/></g></g></g><rect class="legendtoggle" x="0" y="-9.5" width="53.46875" height="19" style="fill: rgb(0, 0, 0); fill-opacity: 0;"/></g><g class="traces" transform="translate(0,52.5)" style="opacity: 1;"><text class="legendtext" text-anchor="start" x="40" y="4.680000000000001" style="font-family: system-ui; font-size: 12px; fill: rgb(0, 0, 0); fill-opacity: 1; white-space: pre;">14</text><g class="layers" style="opacity: 1;"><g class="legendfill"/><g class="legendlines"><path class="js-line" d="M5,0h30" style="fill: none; stroke: rgb(40, 175, 176); stroke-opacity: 1; stroke-width: 2px;"/></g><g class="legendsymbols"><g class="legendpoints"><path class="scatterpts" transform="translate(20,0)" d="M3,0A3,3 0 1,1 0,-3A3,3 0 0,1 3,0Z" style="opacity: 1; stroke-width: 0px; fill: rgb(40, 175, 176); fill-opacity: 1;"/></g></g></g><rect class="legendtoggle" x="0" y="-9.5" width="53.46875" height="19" style="fill: rgb(0, 0, 0); fill-opacity: 0;"/></g><g class="traces" transform="translate(0,71.5)" style="opacity: 1;"><text class="legendtext" text-anchor="start" x="40" y="4.680000000000001" style="font-family: system-ui; font-size: 12px; fill: rgb(0, 0, 0); fill-opacity: 1; white-space: pre;">12</text><g class="layers" style="opacity: 1;"><g class="legendfill"/><g class="legendlines"><path class="js-line" d="M5,0h30" style="fill: none; stroke: rgb(238, 150, 75); stroke-opacity: 1; stroke-width: 2px;"/></g><g class="legendsymbols"><g class="legendpoints"><path class="scatterpts" transform="translate(20,0)" d="M3,0A3,3 0 1,1 0,-3A3,3 0 0,1 3,0Z" style="opacity: 1; stroke-width: 0px; fill: rgb(238, 150, 75); fill-opacity: 1;"/></g></g></g><rect class="legendtoggle" x="0" y="-9.5" width="53.46875" height="19" style="fill: rgb(0, 0, 0); fill-opacity: 0;"/></g></g></g><rect class="scrollbar" rx="20" ry="3" width="0" height="0" style="fill: rgb(128, 139, 164); fill-opacity: 1;" x="0" y="0"/></g><g class="g-gtitle"><text class="gtitle" x="500" y="50" text-anchor="middle" dy="0.7em" style="font-family: system-ui; font-size: 20px; fill: rgb(0, 0, 0); opacity: 1; font-weight: bold; white-space: pre;">Error en la desviación</text></g><g class="g-xtitle"><text class="xtitle" x="496" y="475.909375" text-anchor="middle" style="font-family: system-ui; font-size: 14px; fill: rgb(0, 0, 0); opacity: 1; white-space: pre;">Fecha</text></g><g class="g-ytitle"><text class="ytitle" transform="rotate(-90,41.646875,260)" x="41.646875" y="260" text-anchor="middle" style="font-family: system-ui; font-size: 14px; fill: rgb(0, 0, 0); opacity: 1; white-space: pre;">Desviación</text></g></g></svg>